# xmcd
#
# Track frame offsets:
#	150
#	20057
#	35905
#	53540
#	77702
#	93945
#	117060
#	133512
#	153215
#	171645
#	188635
#	198962
#
# Disc length: 2947 seconds
#
# Revision: 1
# Processed by: cddbd v1.5.2PL0 Copyright (c) Steve Scherf et al.
# Submitted via: audiograbber 1.83.01
#
DISCID=970b810c
DTITLE=Angel Marr - Peace It Together
DYEAR=1993
DGENRE=Rock
TTITLE0=Rock House
TTITLE1=Wild Cheri
TTITLE2=Women and Roses
TTITLE3=Always
TTITLE4=Dirty in White
TTITLE5=Wishin' You Well
TTITLE6=Back to Emotion
TTITLE7=Still My Crazy Friend
TTITLE8=Out of the Rollin' Ocean
TTITLE9=Peace It Together
TTITLE10=Up to Sundown
TTITLE11=Love Lesson
EXTD=
EXTT0=
EXTT1=
EXTT2=
EXTT3=
EXTT4=
EXTT5=
EXTT6=
EXTT7=
EXTT8=
EXTT9=
EXTT10=
EXTT11=
PLAYORDER=
